<svg width="227" height="40" viewBox="0 0 227 40" version="1.1" xmlns="http://www.w3.org/2000/svg" xmlns:xlink="http://www.w3.org/1999/xlink">
<title>language</title>
<desc>Created using Figma</desc>
<g id="Canvas" transform="translate(501 -1115)">
<g id="language">
<g id="Rectangle 9">
<use xlink:href="#path0_fill" transform="translate(-501 1115)" fill="#3B3B3B"/>
</g>
<g id="if_icon-ios7-arrow-back_211686">
<g id="Shape">
<use xlink:href="#path1_fill" transform="matrix(6.12323e-17 -1 1 6.12323e-17 -296 1139)" fill="#FFFFFF"/>
</g>
</g>
<g id="world">
<g id="Shape">
<use xlink:href="#path2_fill" transform="translate(-484.999 1127.14)" fill="#FFFFFF"/>
</g>
</g>
<g id="ENGLISH">
<use xlink:href="#path3_fill" transform="translate(-453 1127)" fill="#FFFFFF"/>
</g>
</g>
</g>
<defs>
<path id="path0_fill" fill-rule="evenodd" d="M 0 2C 0 0.895431 0.895431 0 2 0L 225 0C 226.105 0 227 0.895431 227 2L 227 38C 227 39.1046 226.105 40 225 40L 2 40C 0.895432 40 0 39.1046 0 38L 0 2Z"/>
<path id="path1_fill" d="M 8 1.4175L 6.65417 0L 0 7L 6.65417 14L 8 12.5825L 2.69583 7L 8 1.4175Z"/>
<path id="path2_fill" fill-rule="evenodd" d="M 11.111 5.28503C 10.6498 3.0697 9.26202 1.40381 8.41992 1.05432L 8.41992 5.39734C 9.26202 5.38696 10.3702 5.34399 11.111 5.28503ZM 14.0244 4.82153C 13.8709 4.86865 13.2488 5.04224 12.0185 5.18787C 11.7409 3.71143 11.2399 2.45325 10.5864 1.54492C 12.0845 2.19421 13.3027 3.36304 14.0244 4.82153ZM 8.41992 6.37585C 9.26202 6.36487 10.4424 6.31848 11.2261 6.25342C 11.2906 6.77161 11.3069 7.30798 11.3069 7.85962C 11.3069 8.56812 11.2817 9.25525 11.1772 9.90454C 10.4056 9.84216 9.26202 9.79724 8.41992 9.78723L 8.41992 6.37585ZM 8.41992 10.7657L 8.41992 14.6653C 9.26202 14.3394 10.5089 12.8662 11.0085 10.871C 10.2871 10.8154 9.26202 10.7759 8.41992 10.7657ZM 10.5864 14.1748C 11.1753 13.3563 11.6443 12.2577 11.9338 10.9673C 12.9016 11.0787 13.5113 11.2084 13.8187 11.2859C 13.0786 12.5703 11.9455 13.583 10.5864 14.1748ZM 12.1667 6.15527C 12.3144 7.4342 12.2946 8.72705 12.1078 10.0009C 13.3027 10.1409 13.9823 10.3099 14.2526 10.3888C 14.5642 9.6051 14.7411 8.75317 14.7411 7.85962C 14.7407 6.97644 14.5691 6.10181 14.2358 5.28394L 14.3938 5.73022C 14.3495 5.74597 13.6797 5.97363 12.1667 6.15527Z"/>
<path id="path3_fill" d="M 6.29688 7.72803L 2.2915 7.72803L 2.2915 11.0034L 6.94434 11.0034L 6.94434 12L 1.07275 12L 1.07275 2.75781L 6.88086 2.75781L 6.88086 3.76074L 2.2915 3.76074L 2.2915 6.73145L 6.29688 6.73145L 6.29688 7.72803ZM 15.5645 12L 14.3394 12L 9.68652 4.87793L 9.68652 12L 8.46143 12L 8.46143 2.75781L 9.68652 2.75781L 14.3521 9.91162L 14.3521 2.75781L 15.5645 2.75781L 15.5645 12ZM 24.5527 10.7876C 24.2396 11.2362 23.8016 11.5726 23.2388 11.7969C 22.6802 12.0169 22.0285 12.127 21.2837 12.127C 20.5304 12.127 19.8618 11.9513 19.2778 11.6001C 18.6938 11.2446 18.241 10.741 17.9194 10.0894C 17.6021 9.43766 17.4391 8.68229 17.4307 7.82324L 17.4307 7.01709C 17.4307 5.62484 17.7544 4.54574 18.4019 3.77979C 19.0535 3.01383 19.9676 2.63086 21.144 2.63086C 22.1089 2.63086 22.8854 2.87842 23.4736 3.37354C 24.0618 3.86442 24.4215 4.56266 24.5527 5.46826L 23.334 5.46826C 23.1055 4.24528 22.3776 3.63379 21.1504 3.63379C 20.3337 3.63379 19.7137 3.92155 19.2905 4.49707C 18.8716 5.06836 18.66 5.89779 18.6558 6.98535L 18.6558 7.74072C 18.6558 8.77751 18.8927 9.6027 19.3667 10.2163C 19.8407 10.8257 20.4818 11.1304 21.29 11.1304C 21.7471 11.1304 22.147 11.0796 22.4897 10.978C 22.8325 10.8765 23.116 10.7051 23.3403 10.4639L 23.3403 8.38818L 21.2012 8.38818L 21.2012 7.39795L 24.5527 7.39795L 24.5527 10.7876ZM 27.8154 11.0034L 32.1953 11.0034L 32.1953 12L 26.5903 12L 26.5903 2.75781L 27.8154 2.75781L 27.8154 11.0034ZM 34.8931 12L 33.6743 12L 33.6743 2.75781L 34.8931 2.75781L 34.8931 12ZM 39.8506 7.88037C 38.8053 7.57992 38.0436 7.21175 37.5654 6.77588C 37.0915 6.33577 36.8545 5.79411 36.8545 5.15088C 36.8545 4.42301 37.1444 3.8221 37.7241 3.34814C 38.3081 2.86995 39.0656 2.63086 39.9966 2.63086C 40.6313 2.63086 41.1963 2.75358 41.6914 2.99902C 42.1908 3.24447 42.5758 3.58301 42.8467 4.01465C 43.1217 4.44629 43.2593 4.91813 43.2593 5.43018L 42.0342 5.43018C 42.0342 4.87158 41.8564 4.43359 41.501 4.11621C 41.1455 3.7946 40.644 3.63379 39.9966 3.63379C 39.3957 3.63379 38.9259 3.76709 38.5874 4.03369C 38.2531 4.29606 38.0859 4.66211 38.0859 5.13184C 38.0859 5.50846 38.2446 5.82796 38.562 6.09033C 38.8836 6.34847 39.4274 6.58545 40.1934 6.80127C 40.9635 7.01709 41.5645 7.25619 41.9961 7.51855C 42.432 7.77669 42.7536 8.07926 42.9609 8.42627C 43.1725 8.77327 43.2783 9.18164 43.2783 9.65137C 43.2783 10.4004 42.9863 11.0013 42.4023 11.4541C 41.8184 11.9027 41.0376 12.127 40.0601 12.127C 39.4253 12.127 38.8328 12.0063 38.2827 11.7651C 37.7326 11.5197 37.3073 11.1854 37.0068 10.7622C 36.7106 10.339 36.5625 9.85872 36.5625 9.32129L 37.7876 9.32129C 37.7876 9.87988 37.9928 10.3221 38.4033 10.6479C 38.818 10.9696 39.3703 11.1304 40.0601 11.1304C 40.7033 11.1304 41.1963 10.9992 41.5391 10.7368C 41.8818 10.4744 42.0532 10.1169 42.0532 9.66406C 42.0532 9.21126 41.8945 8.86214 41.5771 8.6167C 41.2598 8.36702 40.6842 8.12158 39.8506 7.88037ZM 51.9492 12L 50.7241 12L 50.7241 7.72803L 46.0649 7.72803L 46.0649 12L 44.8462 12L 44.8462 2.75781L 46.0649 2.75781L 46.0649 6.73145L 50.7241 6.73145L 50.7241 2.75781L 51.9492 2.75781L 51.9492 12Z"/>
</defs>
</svg>
